<?xml version="1.0" encoding="UTF-8"?>
<svg width="820px" height="552px" viewBox="0 0 820 552" version="1.1" xmlns="http://www.w3.org/2000/svg" xmlns:xlink="http://www.w3.org/1999/xlink">
    <!-- Generator: Sketch 49.3 (51167) - http://www.bohemiancoding.com/sketch -->
    <title>Group 2</title>
    <desc>Created with Sketch.</desc>
    <defs>
        <rect id="path-1" x="0" y="0" width="820" height="552"></rect>
        <circle id="path-2" cx="16" cy="16" r="16"></circle>
        <circle id="path-4" cx="16" cy="16" r="16"></circle>
        <circle id="path-6" cx="16" cy="16" r="16"></circle>
    </defs>
    <g id="Architecture" stroke="none" stroke-width="1" fill="none" fill-rule="evenodd">
        <g id="Group-2">
            <g id="Rectangle">
                <use fill="#FFFFFF" fill-rule="evenodd" xlink:href="#path-1"></use>
                <rect stroke="#979797" stroke-width="1" x="0.5" y="0.5" width="819" height="551"></rect>
            </g>
            <polyline id="Line" stroke="#D0021B" stroke-width="6" stroke-linecap="square" points="226.5 73.5 226.5 222.5 316.90625 222.5"></polyline>
            <polyline id="Line" stroke="#D0021B" stroke-width="6" stroke-linecap="square" points="226.386719 74.6171875 226.386719 377.160156 317.089844 377.160156"></polyline>
            <g id="chip" transform="translate(210.000000, 43.000000)">
                <rect id="chip-bg" fill-opacity="0.200000003" fill="#999999" x="0" y="0" width="193" height="32" rx="16"></rect>
                <g id="Avatar">
                    <g id="Page-1">
                        <mask id="mask-3" fill="white">
                            <use xlink:href="#path-2"></use>
                        </mask>
                        <use id="Mask" fill="#D0021B" xlink:href="#path-2"></use>
                    </g>
                </g>
                <text id="Web-(Gateway)-Server" font-family="Roboto-Regular, Roboto" font-size="14" font-weight="normal" line-spacing="20" fill="#000000" fill-opacity="0.543846241">
                    <tspan x="40" y="20">Web (Gateway) Server</tspan>
                </text>
            </g>
            <g id="chip-copy" transform="translate(301.000000, 207.000000)">
                <rect id="chip-bg" fill-opacity="0.200000003" fill="#999999" x="0" y="0" width="193" height="32" rx="16"></rect>
                <g id="Avatar">
                    <g id="Page-1">
                        <mask id="mask-5" fill="white">
                            <use xlink:href="#path-4"></use>
                        </mask>
                        <use id="Mask" fill="#D0021B" xlink:href="#path-4"></use>
                    </g>
                </g>
                <text id="HTML,-CSS,-Images" font-family="Roboto-Regular, Roboto" font-size="14" font-weight="normal" line-spacing="20" fill="#000000" fill-opacity="0.543846241">
                    <tspan x="40" y="20">HTML, CSS, Images</tspan>
                </text>
            </g>
            <path d="M161.359,78.892 C161.352,78.875 161.349,78.857 161.341,78.84 L140.191,31.884 C140.17,31.838 140.147,31.792 140.122,31.747 L139.991,31.511 C139.727,31.021 139.178,30 137.824,30 L90,30 C88.505,30 88.022,31.042 87.632,31.884 L66.579,78.644 C66.564,78.677 66.558,78.711 66.545,78.745 C66.207,79.446 66,80.222 66,81.051 L66,105.677 C66,108.62 68.395,111.015 71.338,111.015 L79.033,111.015 L79.033,114.564 C79.033,116.296 80.442,117.705 82.174,117.705 L95.319,117.705 C97.05,117.705 98.46,116.296 98.46,114.564 L98.46,111.015 L129.37,111.015 L129.37,114.564 C129.37,116.296 130.779,117.705 132.511,117.705 L145.656,117.705 C147.387,117.705 148.797,116.296 148.797,114.564 L148.797,111.015 L156.488,111.015 C159.431,111.015 161.826,108.62 161.826,105.677 L161.826,81.05 C161.824,80.281 161.653,79.553 161.359,78.892 Z M90.391,33.065 C90.401,33.043 90.412,33.021 90.42,33 L137.385,33 C137.417,33.059 137.45,33.12 137.486,33.182 L156.651,75.729 C156.595,75.727 156.543,75.712 156.486,75.712 L131.744,75.712 C133.7,72.528 134.849,68.798 134.849,64.795 C134.849,53.25 125.456,43.857 113.911,43.857 C102.366,43.857 92.973,53.25 92.973,64.795 C92.973,68.798 94.122,72.528 96.078,75.712 L71.338,75.712 C71.284,75.712 71.235,75.726 71.182,75.728 L90.391,33.065 Z M127.9,75.996 C127.704,76.137 127.546,76.325 127.436,76.543 C124.145,80.327 119.308,82.734 113.912,82.734 C108.528,82.734 103.703,80.338 100.412,76.569 C100.297,76.33 100.125,76.123 99.908,75.975 C97.453,72.906 95.974,69.023 95.974,64.796 C95.974,54.905 104.021,46.858 113.912,46.858 C123.803,46.858 131.85,54.905 131.85,64.796 C131.85,69.032 130.365,72.924 127.9,75.996 Z M95.459,114.563 C95.459,114.642 95.397,114.704 95.318,114.704 L82.174,114.704 C82.095,114.704 82.033,114.642 82.033,114.563 L82.033,111.014 L95.459,111.014 L95.459,114.563 Z M145.795,114.563 C145.795,114.642 145.733,114.704 145.654,114.704 L132.51,114.704 C132.431,114.704 132.369,114.642 132.369,114.563 L132.369,111.014 L145.795,111.014 L145.795,114.563 Z M158.824,105.676 C158.824,106.965 157.775,108.014 156.486,108.014 L147.45,108.014 C147.398,108.009 147.347,107.998 147.295,107.998 C147.243,107.998 147.191,108.008 147.14,108.014 L131.024,108.014 C130.972,108.009 130.921,107.998 130.869,107.998 C130.817,107.998 130.765,108.008 130.714,108.014 L97.114,108.014 C97.062,108.009 97.011,107.998 96.959,107.998 C96.907,107.998 96.855,108.008 96.804,108.014 L80.688,108.014 C80.636,108.009 80.585,107.998 80.533,107.998 C80.481,107.998 80.429,108.008 80.378,108.014 L71.338,108.014 C70.049,108.014 69,106.965 69,105.676 L69,81.05 C69,79.761 70.049,78.713 71.338,78.713 L98.312,78.713 C102.15,83.009 107.711,85.734 113.912,85.734 C120.113,85.734 125.674,83.009 129.512,78.713 L156.487,78.713 C157.776,78.713 158.825,79.761 158.825,81.05 L158.825,105.676 L158.824,105.676 Z M77.027,90.646 C75.529,90.646 74.31,91.865 74.31,93.363 C74.31,94.862 75.529,96.081 77.027,96.081 C78.525,96.081 79.744,94.862 79.744,93.363 C79.744,91.865 78.525,90.646 77.027,90.646 Z M77.027,93.646 C76.871,93.646 76.744,93.519 76.744,93.363 C76.744,93.207 76.871,93.081 77.027,93.081 C77.183,93.081 77.31,93.207 77.31,93.363 C77.31,93.519 77.183,93.646 77.027,93.646 Z M88.92,90.646 C87.421,90.646 86.201,91.865 86.201,93.363 C86.201,94.862 87.421,96.081 88.92,96.081 C90.418,96.081 91.637,94.862 91.637,93.363 C91.637,91.865 90.418,90.646 88.92,90.646 Z M88.637,93.363 C88.637,93.205 88.761,93.081 88.92,93.081 C89.075,93.081 89.201,93.207 89.201,93.363 C89.201,93.68 88.638,93.677 88.637,93.363 Z M100.81,90.646 C99.312,90.646 98.093,91.865 98.093,93.363 C98.093,94.862 99.312,96.081 100.81,96.081 C102.309,96.081 103.529,94.862 103.529,93.363 C103.529,91.865 102.309,90.646 100.81,90.646 Z M100.529,93.363 C100.529,93.205 100.653,93.081 100.81,93.081 C100.966,93.081 101.093,93.207 101.093,93.363 C101.094,93.676 100.529,93.679 100.529,93.363 Z M130.068,84.943 C129.24,84.943 128.568,85.614 128.568,86.443 L128.568,100.283 C128.568,101.112 129.24,101.783 130.068,101.783 C130.896,101.783 131.568,101.112 131.568,100.283 L131.568,86.443 C131.568,85.614 130.896,84.943 130.068,84.943 Z M135.912,84.943 C135.084,84.943 134.412,85.614 134.412,86.443 L134.412,100.283 C134.412,101.112 135.084,101.783 135.912,101.783 C136.74,101.783 137.412,101.112 137.412,100.283 L137.412,86.443 C137.412,85.614 136.74,84.943 135.912,84.943 Z M141.756,84.943 C140.928,84.943 140.256,85.614 140.256,86.443 L140.256,100.283 C140.256,101.112 140.928,101.783 141.756,101.783 C142.584,101.783 143.256,101.112 143.256,100.283 L143.256,86.443 C143.256,85.614 142.584,84.943 141.756,84.943 Z M147.598,84.943 C146.77,84.943 146.098,85.614 146.098,86.443 L146.098,100.283 C146.098,101.112 146.77,101.783 147.598,101.783 C148.426,101.783 149.098,101.112 149.098,100.283 L149.098,86.443 C149.098,85.614 148.426,84.943 147.598,84.943 Z M153.441,84.943 C152.613,84.943 151.941,85.614 151.941,86.443 L151.941,100.283 C151.941,101.112 152.613,101.783 153.441,101.783 C154.269,101.783 154.941,101.112 154.941,100.283 L154.941,86.443 C154.941,85.614 154.269,84.943 153.441,84.943 Z M123.58,71.573 L123.33,71.573 L123.33,62.27 C123.33,61.441 122.658,60.77 121.83,60.77 L115.414,60.77 L115.414,56.02 L115.664,56.02 C116.492,56.02 117.164,55.349 117.164,54.52 C117.164,53.691 116.492,53.02 115.664,53.02 L112.164,53.02 C111.336,53.02 110.664,53.691 110.664,54.52 C110.664,55.349 111.336,56.02 112.164,56.02 L112.414,56.02 L112.414,60.77 L105.996,60.77 C105.168,60.77 104.496,61.441 104.496,62.27 L104.496,71.573 L104.246,71.573 C103.418,71.573 102.746,72.244 102.746,73.073 C102.746,73.902 103.418,74.573 104.246,74.573 L107.746,74.573 C108.574,74.573 109.246,73.902 109.246,73.073 C109.246,72.244 108.574,71.573 107.746,71.573 L107.496,71.573 L107.496,63.77 L120.33,63.77 L120.33,71.573 L120.08,71.573 C119.252,71.573 118.58,72.244 118.58,73.073 C118.58,73.902 119.252,74.573 120.08,74.573 L123.58,74.573 C124.408,74.573 125.08,73.902 125.08,73.073 C125.08,72.244 124.408,71.573 123.58,71.573 Z" id="deepz-server-connect" fill="#000000" fill-rule="nonzero"></path>
            <g id="ref-star" transform="translate(170.000000, 265.000000)" fill="#000000" fill-opacity="0.543846241" font-family="Roboto-Regular, Roboto" font-size="14" font-weight="normal">
                <text id="ref">
                    <tspan x="0" y="13">*</tspan>
                </text>
            </g>
            <g id="Group" transform="translate(167.000000, 489.000000)" fill="#000000" font-size="14">
                <text id="Icon-created-by-Deep" fill-opacity="0.54" font-family="Roboto-Medium, Roboto" font-weight="400">
                    <tspan x="9" y="15">Icon created by Deepz</tspan>
                </text>
                <text id="from-the-Noun-Project" fill-opacity="0.54" font-family="Roboto-Medium, Roboto" font-weight="400">
                    <tspan x="9" y="31">from the Noun Project</tspan>
                </text>
                <g id="ref-star" fill-opacity="0.543846241" font-family="Roboto-Regular, Roboto" font-weight="normal">
                    <text id="ref">
                        <tspan x="0" y="13">*</tspan>
                    </text>
                </g>
            </g>
            <g id="ref-star" transform="translate(173.000000, 119.000000)" fill="#000000" fill-opacity="0.543846241" font-family="Roboto-Regular, Roboto" font-size="14" font-weight="normal">
                <text id="ref">
                    <tspan x="0" y="13">*</tspan>
                </text>
            </g>
            <g id="ref-star" transform="translate(167.000000, 421.000000)" fill="#000000" fill-opacity="0.543846241" font-family="Roboto-Regular, Roboto" font-size="14" font-weight="normal">
                <text id="ref">
                    <tspan x="0" y="13">*</tspan>
                </text>
            </g>
            <path d="M132.711,237.697 C132.108,237.129 131.159,237.158 130.59,237.758 L123.825,244.922 C123.279,245.5 123.279,246.404 123.825,246.983 L130.59,254.151 C130.885,254.464 131.282,254.622 131.681,254.622 C132.05,254.622 132.42,254.485 132.71,254.212 C133.313,253.644 133.34,252.694 132.772,252.093 L126.979,245.954 L132.772,239.819 C133.34,239.216 133.313,238.267 132.711,237.697 Z M144.826,237.759 C144.258,237.155 143.308,237.128 142.706,237.696 C142.104,238.264 142.076,239.214 142.644,239.817 L148.437,245.956 L142.644,252.089 C142.076,252.693 142.103,253.642 142.705,254.21 C142.995,254.483 143.365,254.62 143.735,254.62 C144.133,254.62 144.531,254.462 144.826,254.149 L151.591,246.985 C152.137,246.407 152.137,245.505 151.591,244.926 L144.826,237.759 Z M139.775,237.423 C138.967,237.234 138.16,237.724 137.963,238.528 L134.534,252.673 C134.339,253.478 134.834,254.288 135.638,254.484 C135.757,254.513 135.875,254.527 135.992,254.527 C136.669,254.527 137.282,254.066 137.449,253.381 L140.878,239.236 C141.075,238.429 140.58,237.619 139.775,237.423 Z M158.5,196.953 L156,196.953 L156,191.5 C156,190.446 155.692,189.606 155.085,189.004 C154.047,187.974 152.582,187.987 151.017,187.998 L110.459,188 L105.159,181.548 C104.874,181.201 104.449,181 104,181 L81.5,181 C78.467,181 76,183.467 76,186.5 L76,196.953 L72.5,196.953 C70.57,196.953 69,198.523 69,200.453 L69,261.12 C69,263.05 70.57,264.62 72.5,264.62 L158.5,264.62 C160.43,264.62 162,263.05 162,261.12 L162,200.453 C162,198.523 160.43,196.953 158.5,196.953 Z M79,186.5 C79,185.122 80.122,184 81.5,184 L103.291,184 L108.591,190.452 C108.876,190.799 109.301,191 109.75,191 L150.5,191 L151.04,190.997 C151.72,190.992 152.746,190.984 152.949,191.104 C152.95,191.105 153,191.204 153,191.5 L153,196.953 L79,196.953 L79,186.5 Z M159,261.121 C159,261.396 158.775,261.621 158.5,261.621 L72.5,261.621 C72.224,261.621 72,261.396 72,261.121 L72,200.453 C72,200.177 72.224,199.953 72.5,199.953 L158.5,199.953 C158.775,199.953 159,200.177 159,200.453 L159,261.121 Z M108.507,206.787 L79.507,206.789 C78.678,206.789 78.007,207.461 78.007,208.289 C78.007,209.118 78.679,209.789 79.507,209.789 L108.507,209.787 C109.336,209.787 110.007,209.115 110.007,208.287 C110.007,207.458 109.335,206.787 108.507,206.787 Z M100.507,214.287 L79.507,214.289 C78.678,214.289 78.007,214.961 78.007,215.789 C78.007,216.618 78.679,217.289 79.507,217.289 L100.507,217.287 C101.336,217.287 102.007,216.615 102.007,215.787 C102.007,214.958 101.335,214.287 100.507,214.287 Z" id="Shape" fill="#000000" fill-rule="nonzero"></path>
            <text id="https://www.toyzilla" font-family="Gaegu-Light, Gaegu Light" font-size="18" font-weight="normal" fill="#000000" fill-opacity="0.543846241">
                <tspan x="516" y="60">https://www.toyzillabox.com/</tspan>
                <tspan x="735.564" y="60" font-family="LucidaGrande, Lucida Grande">…</tspan>
            </text>
            <text id="index.html-img/…-css" font-family="Gaegu-Light, Gaegu Light" font-size="18" font-weight="normal" fill="#000000" fill-opacity="0.543846241">
                <tspan x="516" y="221">index.html</tspan>
                <tspan x="516" y="239">img/</tspan>
                <tspan x="551.118" y="239" font-family="LucidaGrande, Lucida Grande">…</tspan>
                <tspan x="569.118" y="239"></tspan>
                <tspan x="516" y="260">css/</tspan>
                <tspan x="546.132" y="260" font-family="LucidaGrande, Lucida Grande">…</tspan>
                <tspan x="564.132" y="260"></tspan>
                <tspan x="516" y="281">js/</tspan>
                <tspan x="535.962" y="281" font-family="LucidaGrande, Lucida Grande">…</tspan>
            </text>
            <text id="api/…" font-family="Gaegu-Light, Gaegu Light" font-size="18" font-weight="normal" fill="#000000" fill-opacity="0.543846241">
                <tspan x="516" y="378">api/</tspan>
                <tspan x="545.682" y="378" font-family="LucidaGrande, Lucida Grande">…</tspan>
            </text>
            <path d="M161.359,381.892 C161.352,381.874 161.349,381.857 161.341,381.839 L140.191,334.884 C140.17,334.838 140.147,334.792 140.122,334.748 L139.992,334.512 C139.728,334.022 139.179,333 137.824,333 L90,333 C88.505,333 88.022,334.043 87.632,334.884 L66.579,381.642 C66.564,381.676 66.557,381.71 66.545,381.746 C66.206,382.446 66,383.222 66,384.05 L66,408.675 C66,411.618 68.395,414.013 71.338,414.013 L79.033,414.013 L79.033,417.562 C79.033,419.293 80.442,420.703 82.174,420.703 L95.319,420.703 C97.05,420.703 98.46,419.294 98.46,417.562 L98.46,414.013 L129.37,414.013 L129.37,417.562 C129.37,419.293 130.779,420.703 132.511,420.703 L145.656,420.703 C147.387,420.703 148.797,419.294 148.797,417.562 L148.797,414.013 L156.488,414.013 C159.431,414.013 161.826,411.618 161.826,408.675 L161.826,384.049 C161.824,383.281 161.653,382.553 161.359,381.892 Z M90.391,336.066 C90.401,336.044 90.412,336.022 90.42,336.001 L137.385,336.001 C137.417,336.06 137.45,336.12 137.486,336.183 L156.651,378.731 C156.595,378.729 156.543,378.714 156.486,378.714 L131.553,378.714 C133.659,375.448 134.898,371.57 134.898,367.403 C134.898,355.858 125.506,346.465 113.962,346.465 C102.417,346.465 93.024,355.858 93.024,367.403 C93.024,371.57 94.262,375.448 96.37,378.714 L71.338,378.714 C71.284,378.714 71.235,378.729 71.182,378.73 L90.391,336.066 Z M113.962,385.338 C104.071,385.338 96.024,377.292 96.024,367.402 C96.024,357.511 104.071,349.464 113.962,349.464 C123.852,349.464 131.898,357.511 131.898,367.402 C131.897,377.292 123.851,385.338 113.962,385.338 Z M95.459,417.561 C95.459,417.64 95.397,417.702 95.318,417.702 L82.174,417.702 C82.095,417.702 82.033,417.64 82.033,417.561 L82.033,414.012 L95.459,414.012 L95.459,417.561 Z M145.795,417.561 C145.795,417.64 145.733,417.702 145.654,417.702 L132.51,417.702 C132.431,417.702 132.369,417.64 132.369,417.561 L132.369,414.012 L145.795,414.012 L145.795,417.561 Z M158.824,408.674 C158.824,409.963 157.775,411.012 156.486,411.012 L147.45,411.012 C147.398,411.007 147.347,410.996 147.295,410.996 C147.243,410.996 147.191,411.007 147.14,411.012 L131.024,411.012 C130.972,411.007 130.921,410.996 130.869,410.996 C130.817,410.996 130.765,411.007 130.714,411.012 L97.114,411.012 C97.062,411.007 97.011,410.996 96.959,410.996 C96.907,410.996 96.855,411.007 96.804,411.012 L80.688,411.012 C80.636,411.007 80.585,410.996 80.533,410.996 C80.481,410.996 80.429,411.007 80.378,411.012 L71.338,411.012 C70.049,411.012 69,409.963 69,408.674 L69,384.049 C69,382.761 70.049,381.713 71.338,381.713 L98.722,381.713 C102.544,385.78 107.953,388.338 113.962,388.338 C119.97,388.338 125.379,385.78 129.201,381.713 L156.486,381.713 C157.775,381.713 158.824,382.761 158.824,384.049 L158.824,408.674 Z M77.027,393.645 C75.529,393.645 74.31,394.864 74.31,396.362 C74.31,397.86 75.529,399.079 77.027,399.079 C78.525,399.079 79.744,397.86 79.744,396.362 C79.744,394.864 78.525,393.645 77.027,393.645 Z M77.027,396.645 C76.868,396.645 76.744,396.521 76.744,396.362 C76.744,396.206 76.871,396.079 77.027,396.079 C77.18,396.079 77.31,396.209 77.31,396.362 C77.31,396.518 77.183,396.645 77.027,396.645 Z M88.92,393.645 C87.421,393.645 86.201,394.864 86.201,396.362 C86.201,397.86 87.421,399.079 88.92,399.079 C90.418,399.079 91.637,397.86 91.637,396.362 C91.637,394.864 90.418,393.645 88.92,393.645 Z M88.92,396.645 C88.761,396.645 88.637,396.521 88.637,396.362 C88.637,396.203 88.761,396.079 88.92,396.079 C89.075,396.079 89.201,396.206 89.201,396.362 C89.201,396.518 89.075,396.645 88.92,396.645 Z M100.81,393.645 C99.312,393.645 98.093,394.864 98.093,396.362 C98.093,397.86 99.312,399.079 100.81,399.079 C102.309,399.079 103.529,397.86 103.529,396.362 C103.529,394.864 102.309,393.645 100.81,393.645 Z M100.529,396.362 C100.529,396.206 100.655,396.079 100.81,396.079 C100.966,396.079 101.093,396.206 101.093,396.362 C101.094,396.675 100.529,396.679 100.529,396.362 Z M130.068,387.942 C129.24,387.942 128.568,388.614 128.568,389.442 L128.568,403.282 C128.568,404.11 129.24,404.782 130.068,404.782 C130.896,404.782 131.568,404.11 131.568,403.282 L131.568,389.442 C131.568,388.614 130.896,387.942 130.068,387.942 Z M135.912,387.942 C135.084,387.942 134.412,388.614 134.412,389.442 L134.412,403.282 C134.412,404.11 135.084,404.782 135.912,404.782 C136.74,404.782 137.412,404.11 137.412,403.282 L137.412,389.442 C137.412,388.614 136.74,387.942 135.912,387.942 Z M141.756,387.942 C140.928,387.942 140.256,388.614 140.256,389.442 L140.256,403.282 C140.256,404.11 140.928,404.782 141.756,404.782 C142.584,404.782 143.256,404.11 143.256,403.282 L143.256,389.442 C143.256,388.614 142.584,387.942 141.756,387.942 Z M147.598,387.942 C146.77,387.942 146.098,388.614 146.098,389.442 L146.098,403.282 C146.098,404.11 146.77,404.782 147.598,404.782 C148.426,404.782 149.098,404.11 149.098,403.282 L149.098,389.442 C149.098,388.614 148.426,387.942 147.598,387.942 Z M153.441,387.942 C152.613,387.942 151.941,388.614 151.941,389.442 L151.941,403.282 C151.941,404.11 152.613,404.782 153.441,404.782 C154.269,404.782 154.941,404.11 154.941,403.282 L154.941,389.442 C154.941,388.614 154.269,387.942 153.441,387.942 Z M118.5,366.51 L112.197,365.791 L117.843,357.282 C118.301,356.592 118.113,355.661 117.422,355.203 C116.734,354.747 115.802,354.933 115.343,355.624 L108.343,366.175 C108.054,366.61 108.013,367.164 108.234,367.637 C108.454,368.111 108.905,368.436 109.423,368.494 L115.726,369.213 L110.214,377.521 C109.756,378.211 109.944,379.142 110.635,379.6 C110.89,379.769 111.178,379.85 111.463,379.85 C111.948,379.85 112.425,379.615 112.714,379.179 L119.58,368.829 C119.869,368.394 119.91,367.84 119.689,367.367 C119.47,366.894 119.018,366.569 118.5,366.51 Z" id="Shape" fill="#000000" fill-rule="nonzero"></path>
            <g id="chip-copy" transform="translate(301.000000, 361.000000)">
                <rect id="chip-bg" fill-opacity="0.200000003" fill="#999999" x="0" y="0" width="193" height="32" rx="16"></rect>
                <g id="Avatar">
                    <g id="Page-1">
                        <mask id="mask-7" fill="white">
                            <use xlink:href="#path-6"></use>
                        </mask>
                        <use id="Mask" fill="#D0021B" xlink:href="#path-6"></use>
                    </g>
                </g>
                <text id="API-Server" font-family="Roboto-Regular, Roboto" font-size="14" font-weight="normal" line-spacing="20" fill="#000000" fill-opacity="0.543846241">
                    <tspan x="40" y="20">API Server</tspan>
                </text>
            </g>
        </g>
    </g>
</svg>